Coordinates
version=1
nRows=17
nColumns=24
inDegrees=yes

Units are S.I. units (second, meters, Newtons, ...)
Angles are in degrees.

endheader
time	pelvis_tilt	pelvis_list	pelvis_rotation	pelvis_tx	pelvis_ty	pelvis_tz	hip_flexion_r	hip_adduction_r	hip_rotation_r	knee_angle_r	ankle_angle_r	subtalar_angle_r	mtp_angle_r	hip_flexion_l	hip_adduction_l	hip_rotation_l	knee_angle_l	ankle_angle_l	subtalar_angle_l	mtp_angle_l	lumbar_extension	lumbar_bending	lumbar_rotation
      1.29383333	     -0.95870577	     -6.49139049	     -7.18338002	      0.10589527	      0.96641334	      0.30644738	    -20.79915632	      8.70568372	      6.27987146	     -8.75629129	      5.50188058	     -8.09722912	      8.31880559	     24.83045958	     -6.52151710	     -7.07662336	      2.27247441	     -0.05300216	     -3.59352574	      6.42077858	     -3.79340140	      9.42003950	     11.96794758
      1.29800000	     -1.05682115	     -6.34968303	     -7.23188900	      0.11227309	      0.96593008	      0.30623242	    -20.79679404	      8.49919616	      6.17204464	     -9.17603093	      5.15950863	     -8.07626985	      8.48998378	     24.88093052	     -6.36384073	     -6.97457400	      1.90066990	     -0.51667081	     -4.17503894	      6.47337227	     -3.58904588	      9.26198719	     11.97630904
      1.30216667	     -1.15989288	     -6.19665234	     -7.27590692	      0.11867807	      0.96549347	      0.30600274	    -20.76466560	      8.28506853	      6.05863299	     -9.63175814	      4.78353918	     -8.08035754	      8.72356287	     24.93702126	     -6.19298839	     -6.82728864	      1.50160963	     -1.03049346	     -4.84840313	      6.55143276	     -3.37973859	      9.09393067	     11.97155208
      1.30633333	     -1.17560018	     -5.98990358	     -7.30698685	      0.12517157	      0.96521908	      0.30574122	    -20.80939814	      7.99470745	      5.85049991	    -10.07841542	      4.25615210	     -7.91533956	     11.47023143	     24.88760721	     -5.95298421	     -6.70957902	      1.10646284	     -1.59921161	     -5.57059725	      7.54559969	     -3.25630282	      8.84302412	     11.90107610
      1.31050000	     -1.36151818	     -5.83666985	     -7.32484473	      0.13162476	      0.96477790	      0.30550809	    -20.64944754	      7.81913848	      5.77877383	    -10.60433650	      3.88442090	     -8.17287219	     11.58080168	     25.09471012	     -5.78824298	     -6.58327739	      0.55284888	     -2.15339061	     -6.12925206	      7.56489548	     -2.92214394	      8.68203459	     11.93637527
      1.31466667	     -1.46831172	     -5.64865107	     -7.33057393	      0.13813010	      0.96449498	      0.30523077	    -20.56031228	      7.59201092	      5.66618532	    -11.12346087	      3.37274051	     -8.30660747	     11.76140700	     25.18577850	     -5.56925906	     -6.38641279	      0.04633164	     -2.77219232	     -6.87612983	      7.60614163	     -2.69066333	      8.47217676	     11.89746551
      1.31883333	     -1.53821771	     -5.42330078	     -7.31165908	      0.14468348	      0.96429034	      0.30489747	    -20.46210359	      7.31703437	      5.40100959	    -11.70621940	      2.81095758	     -8.31540081	     15.12104952	     25.25194518	     -5.29912532	     -6.20798143	     -0.49482224	     -3.38671267	     -7.57984553	      8.49644588	     -2.48733736	      8.20333909	     11.84495124
      1.32300000	     -1.66157698	     -5.21572068	     -7.30775926	      0.15125058	      0.96411320	      0.30462978	    -20.32721331	      7.08718816	      5.35560266	    -12.25315701	      2.20344180	     -8.56024791	     15.17472557	     25.39459849	     -5.06536680	     -6.07561136	     -1.09328076	     -4.01369172	     -8.17070360	      8.48842655	     -2.21970234	      7.96586903	     11.80389435
      1.32716667	     -1.75845760	     -5.00241741	     -7.27025959	      0.15783441	      0.96400561	      0.30428584	    -20.17903987	      6.85310606	      5.21427117	    -12.86411755	      1.56901645	     -8.74915298	     15.29138884	     25.51439299	     -4.80414344	     -5.87776717	     -1.70358147	     -4.64564960	     -8.87474784	      8.49184317	     -1.96867352	      7.72407378	     11.73089804
      1.33133333	     -1.85054353	     -4.76549374	     -7.23626855	      0.16443994	      0.96396469	      0.30393048	    -19.99560074	      6.59065966	      5.04885820	    -13.53660675	      0.90553843	     -8.92249279	     15.49273391	     25.62901106	     -4.52022768	     -5.69163630	     -2.32605934	     -5.25053974	     -9.53190888	      8.50778051	     -1.73151957	      7.45272609	     11.64728955
      1.33550000	     -1.92845524	     -4.50742757	     -7.17082225	      0.17107685	      0.96398585	      0.30353340	    -19.80990968	      6.31671091	      4.87298962	    -14.22362860	      0.23020337	     -9.10295383	     15.90245363	     25.73918876	     -4.19939860	     -5.48391381	     -2.96998134	     -5.85613570	    -10.20143290	      8.54368864	     -1.49254367	      7.13936430	     11.54240302
      1.33966667	     -2.01894547	     -4.25625323	     -7.09832762	      0.17771614	      0.96404921	      0.30310999	    -19.58277982	      6.05328006	      4.69759156	    -14.94624560	     -0.54989413	     -9.29438005	     16.44422037	     25.87878501	     -3.88511949	     -5.28640146	     -3.65547592	     -6.40868158	    -10.79215423	      8.58472313	     -1.24228471	      6.84650764	     11.43947132
      1.34383333	     -2.06458686	     -3.99250447	     -7.02425680	      0.18437995	      0.96422991	      0.30270644	    -19.38163333	      5.77244031	      4.52485869	    -15.68691095	     -1.44504472	     -9.46946745	     16.55788380	     25.99348024	     -3.56642524	     -5.21827099	     -4.40349349	     -6.81554782	    -11.02310794	      8.58725994	     -1.05162818	      6.52384709	     11.40709606
      1.34800000	     -2.15889919	     -3.76766717	     -6.92672201	      0.19098065	      0.96438580	      0.30218919	    -19.08410825	      5.54280723	      4.35147288	    -16.50449961	     -2.34763719	     -9.64917503	     16.99232776	     26.14416900	     -3.26022960	     -4.93054337	     -5.11447648	     -7.31494088	    -11.69630807	      8.59930245	     -0.80547671	      6.28697937	     11.25189433
      1.35216667	     -2.10943730	     -3.44561766	     -6.81546223	      0.19770607	      0.96478059	      0.30165187	    -18.93122084	      5.17828453	      4.07782807	    -17.28564478	     -3.39576830	     -9.73526502	     22.25755280	     26.11860159	     -2.84009084	     -4.77643901	     -5.78798400	     -7.79512286	    -12.20542484	      8.68238656	     -0.70839484	      5.88207928	     11.09693772
      1.35633333	     -2.22530377	     -3.21450299	     -6.68867153	      0.20432013	      0.96498318	      0.30111715	    -18.55012763	      4.95961252	      3.90362352	    -18.19203628	     -4.36294222	     -9.99856981	     22.32774107	     26.34916815	     -2.53424975	     -4.61977789	     -6.63556564	     -8.02954461	    -12.41094067	      8.67298951	     -0.42697791	      5.61753733	     11.06382973
      1.36050000	     -2.23947254	     -2.92507549	     -6.57472062	      0.21098327	      0.96537567	      0.30057558	    -18.24731450	      4.65285565	      3.70538493	    -19.12749077	     -5.38764756	    -10.19533142	     22.38308707	     26.42587206	     -2.16110876	     -4.50394220	     -7.40548669	     -8.23561789	    -12.63015193	      8.66239691	     -0.26218356	      5.25731200	     10.99107950
